<?xml version="1.0" standalone="no"?>
<!DOCTYPE svg PUBLIC "-//W3C//DTD SVG 20010904//EN"
 "http://www.w3.org/TR/2001/REC-SVG-20010904/DTD/svg10.dtd">
<svg version="1.0" xmlns="http://www.w3.org/2000/svg"
 width="1200.000000pt" height="1922.000000pt" viewBox="0 0 1200.000000 1922.000000"
 preserveAspectRatio="xMidYMid meet">
<metadata>
Created by potrace 1.16, written by Peter Selinger 2001-2019
</metadata>
<g transform="translate(0.000000,1922.000000) scale(0.100000,-0.100000)"
fill="#000000" stroke="none">
<path d="M3440 19205 c-337 -57 -660 -212 -1037 -498 -54 -41 -210 -163 -348
-271 -390 -307 -564 -428 -802 -560 -277 -153 -593 -224 -1079 -243 l-174 -6
3 -5836 c2 -5509 4 -5842 20 -5951 82 -536 246 -1011 506 -1465 502 -876 1394
-1715 2496 -2347 204 -117 635 -338 660 -338 13 0 15 363 15 3160 l0 3160
-388 0 -387 0 -168 -168 -167 -167 0 -202 0 -201 50 -32 c28 -18 66 -50 84
-72 112 -131 42 -343 -131 -394 -127 -37 -260 38 -309 173 -17 50 -17 79 1
141 17 57 86 133 151 168 l37 19 -7 140 c-3 77 -3 178 1 224 l6 85 210 213
210 213 -329 0 -329 0 -250 -250 -250 -250 -3 -509 -4 -508 63 -44 c88 -62
120 -110 126 -193 7 -82 -12 -139 -67 -195 -60 -61 -94 -76 -180 -76 -85 0
-118 14 -176 72 -50 50 -74 106 -74 176 0 96 37 156 135 222 l55 36 0 447 0
447 -195 -195 c-173 -173 -195 -198 -189 -220 42 -173 4 -285 -121 -346 -108
-52 -247 -17 -314 80 -82 119 -53 276 65 355 67 44 128 51 249 26 29 -6 51 15
495 459 l465 466 -596 0 -596 0 -52 -69 c-38 -52 -64 -76 -103 -95 -209 -104
-440 124 -335 330 91 180 309 196 432 33 25 -34 45 -65 45 -70 0 -5 249 -9
595 -9 327 0 595 3 595 7 0 4 -236 244 -524 533 l-523 525 -7 49 c-3 27 -6
171 -6 320 l0 271 -64 47 c-88 64 -117 110 -124 196 -3 55 0 76 18 115 29 62
106 130 165 147 53 15 130 8 174 -15 82 -42 144 -141 144 -230 0 -91 -46 -163
-146 -227 l-47 -30 0 -297 0 -296 248 -248 c136 -136 250 -247 255 -247 4 0 7
74 7 164 l0 163 -69 52 c-52 38 -76 64 -95 103 -82 164 40 358 224 358 146 0
257 -120 248 -265 -5 -86 -43 -145 -125 -199 l-62 -41 0 -226 -1 -226 29 -37
c57 -72 451 -456 474 -461 12 -3 127 -4 256 -3 l233 3 -48 34 c-69 49 -481
463 -494 495 -6 18 -10 306 -10 835 l0 808 -22 10 c-42 19 -131 107 -149 148
-71 155 57 347 231 346 68 0 113 -17 163 -60 74 -66 105 -152 86 -240 -14 -67
-55 -120 -128 -167 l-60 -39 0 -547 c-1 -302 2 -548 7 -548 4 0 90 83 192 185
l184 184 6 93 c5 75 4 95 -8 103 -100 70 -125 92 -148 130 -59 102 -37 225 56
308 78 71 174 86 266 43 64 -30 120 -95 140 -164 34 -115 -18 -220 -148 -300
l-38 -24 0 -111 0 -112 -255 -255 -255 -255 0 -165 0 -165 222 -222 223 -223
477 0 478 0 0 5410 0 5410 -92 -1 c-51 -1 -127 -7 -168 -14z m-2120 -4295 l0
-410 480 0 480 0 0 410 0 410 235 0 235 0 0 -1035 0 -1035 -235 0 -235 0 0
425 0 425 -480 0 -480 0 0 -425 0 -425 -235 0 -235 0 0 1035 0 1035 235 0 235
0 0 -410z"/>
<path d="M8300 13815 l0 -5405 295 0 295 0 0 383 0 383 26 52 c64 129 211 179
335 114 60 -31 113 -93 129 -150 6 -22 10 -184 10 -409 l0 -373 280 0 280 0 0
383 c0 380 0 382 24 432 89 191 356 193 450 3 l26 -52 0 -383 0 -383 280 0
280 0 0 383 c0 380 0 382 24 432 89 191 356 193 450 3 l26 -52 0 -548 0 -548
-1605 0 -1605 0 0 -3195 c0 -2744 2 -3195 14 -3195 17 0 360 169 511 253 680
374 1372 892 1836 1374 718 747 1144 1533 1289 2378 53 310 50 -58 50 6166 l0
5766 -186 7 c-456 17 -771 85 -1032 222 -228 120 -445 269 -827 570 -479 378
-630 484 -835 588 -257 131 -525 206 -737 206 l-83 0 0 -5405z m2344 1462
c298 -81 456 -253 456 -496 0 -140 -46 -254 -143 -357 -33 -36 -73 -72 -88
-81 -16 -10 -29 -20 -29 -23 0 -3 34 -23 77 -44 151 -78 245 -197 278 -353 19
-86 18 -140 0 -228 -39 -182 -155 -307 -355 -381 -167 -63 -208 -66 -902 -71
l-628 -5 0 1036 0 1037 618 -3 617 -4 99 -27z m-1404 -5319 c151 -65 197 -249
95 -382 -81 -106 -238 -126 -347 -43 -123 94 -130 283 -13 385 81 71 164 84
265 40z m1055 5 c98 -50 155 -133 155 -226 0 -104 -46 -179 -141 -226 -102
-51 -195 -38 -281 38 -107 93 -101 277 12 374 75 64 176 80 255 40z m1066 -4
c131 -66 184 -208 125 -334 -27 -58 -53 -84 -116 -117 -61 -32 -167 -32 -226
-1 -87 46 -139 140 -132 238 11 125 85 208 213 238 32 8 97 -4 136 -24z
m-2367 -2080 c22 -17 26 -28 26 -70 0 -176 115 -409 258 -524 71 -57 196 -120
282 -141 78 -20 240 -22 325 -4 69 14 212 67 221 81 3 5 -12 31 -34 57 -134
162 -210 344 -215 510 -2 67 0 76 22 93 52 42 74 12 95 -126 18 -115 43 -195
85 -268 34 -60 137 -187 151 -187 17 0 117 133 158 210 46 86 56 120 77 256
16 109 35 142 75 129 35 -11 49 -59 39 -143 -19 -173 -87 -318 -234 -498 l-26
-32 75 -31 c193 -80 369 -89 549 -26 141 49 273 153 358 283 55 84 83 152 99
243 6 35 15 89 20 119 12 65 37 95 73 86 22 -5 26 -13 32 -59 21 -168 -56
-460 -175 -656 -241 -402 -660 -642 -1119 -642 -350 0 -675 135 -921 381 -231
230 -380 570 -380 866 0 74 2 84 22 98 29 20 30 20 62 -5z"/>
<path d="M9780 14711 l0 -251 293 0 c313 0 367 6 447 51 24 13 58 43 75 67 26
38 30 53 33 120 3 91 -20 146 -80 195 -64 51 -120 59 -460 64 l-308 5 0 -251z"/>
<path d="M9780 13855 l0 -267 353 5 c269 3 364 8 402 19 137 41 198 115 199
243 1 125 -55 198 -184 241 -48 16 -102 18 -412 22 l-358 3 0 -266z"/>
<path d="M9221 7162 c9 -26 193 -213 261 -265 226 -174 491 -256 783 -244 280
12 512 106 735 297 68 60 205 209 197 216 -2 2 -60 -22 -128 -55 -150 -72
-213 -90 -345 -98 -154 -9 -291 23 -447 104 l-67 36 -93 -46 c-123 -61 -219
-87 -347 -94 -159 -8 -284 23 -465 116 -90 46 -88 45 -84 33z"/>
<path d="M4120 12490 l0 -4090 53 0 c177 0 431 46 597 107 510 188 885 632
1001 1186 l22 106 76 7 c71 6 328 1 336 -8 2 -2 11 -39 20 -83 127 -631 571
-1109 1170 -1258 130 -33 218 -46 365 -54 l120 -6 0 4091 0 4092 -1880 0
-1880 0 0 -4090z m1414 2753 c3 -16 4 -300 4 -633 -1 -666 1 -688 61 -814 74
-157 200 -226 412 -226 247 0 390 112 445 350 15 66 17 153 21 713 l5 637 229
0 229 0 0 -618 c0 -361 -4 -651 -10 -699 -47 -375 -243 -626 -570 -733 -119
-38 -241 -53 -405 -47 -184 7 -305 35 -445 104 -80 40 -110 62 -191 143 -86
85 -102 106 -148 200 -97 202 -95 174 -98 963 l-4 687 230 0 229 0 6 -27z m76
-5584 c-103 -405 -382 -757 -760 -958 -91 -48 -294 -122 -373 -136 l-39 -6 7
33 c29 139 143 387 248 535 75 106 254 289 357 366 152 112 334 205 494 252
62 18 82 20 84 10 2 -7 -7 -50 -18 -96z m990 34 c416 -177 752 -524 903 -933
40 -107 62 -188 54 -196 -6 -7 -171 38 -247 67 -294 111 -571 338 -737 604
-80 127 -172 360 -197 497 l-7 37 73 -20 c40 -11 111 -36 158 -56z"/>
<path d="M2169 10815 c-38 -21 -62 -78 -56 -134 4 -36 13 -52 41 -78 30 -28
43 -33 83 -33 85 0 132 48 133 133 0 55 -20 91 -61 113 -35 18 -106 18 -140
-1z"/>
<path d="M983 10350 c-94 -57 -80 -204 22 -238 55 -18 102 -7 142 33 29 29 33
39 33 88 0 40 -5 61 -21 81 -44 56 -118 72 -176 36z"/>
<path d="M2682 10280 c-88 -54 -79 -190 15 -232 125 -55 241 84 166 198 -34
52 -124 69 -181 34z"/>
<path d="M1608 9594 c-37 -19 -58 -63 -58 -116 1 -81 50 -128 134 -128 43 0
53 4 87 39 35 34 39 44 39 87 -1 58 -15 88 -56 115 -35 23 -107 25 -146 3z"/>
<path d="M5998 9344 c-5 -4 -8 -25 -8 -46 0 -102 -66 -326 -131 -448 -172
-319 -463 -537 -814 -611 -49 -10 -113 -19 -142 -19 -28 0 -55 -4 -58 -10 -4
-6 12 -10 40 -10 64 0 229 -35 317 -66 428 -154 730 -534 787 -990 11 -86 21
-108 21 -45 0 60 35 227 66 313 105 294 334 546 616 678 104 48 233 86 346
101 123 16 129 21 34 30 -293 27 -585 180 -780 409 -154 181 -256 418 -280
648 -4 41 -10 70 -14 66z"/>
<path d="M538 8324 c-78 -42 -77 -188 2 -229 16 -8 50 -15 76 -15 41 0 51 5
85 39 35 35 39 44 39 91 0 47 -4 56 -39 91 -34 35 -44 39 -87 39 -27 -1 -61
-7 -76 -16z"/>
<path d="M4125 7034 c-4 -538 -6 -2067 -3 -3397 l4 -2418 54 -47 c382 -336
797 -623 1320 -914 201 -112 485 -258 501 -258 19 0 514 259 732 382 314 179
587 360 813 541 177 143 293 254 315 302 18 38 19 173 19 3413 l0 3372 -97 0
c-300 -1 -626 -100 -872 -264 -342 -229 -583 -586 -676 -1001 -15 -66 -32
-123 -38 -127 -16 -10 -379 -10 -394 0 -7 4 -20 46 -29 92 -36 191 -136 434
-247 600 -279 419 -740 675 -1253 697 l-142 6 -7 -979z m530 765 c459 -157
840 -574 955 -1047 13 -50 20 -95 17 -98 -12 -12 -201 55 -312 109 -403 199
-712 553 -844 970 -42 133 -44 128 32 111 34 -8 103 -28 152 -45z m2875 -65
c-132 -415 -437 -768 -834 -965 -115 -57 -311 -128 -322 -116 -9 9 36 175 73
272 50 128 82 187 164 310 156 233 404 433 664 535 139 54 279 91 283 75 2 -7
-11 -57 -28 -111z m-1898 -4117 c72 -35 139 -108 166 -179 70 -186 49 -400
-52 -537 -94 -128 -257 -177 -451 -136 -47 10 -85 21 -85 25 0 4 7 24 16 45
13 33 18 36 42 31 15 -4 70 -9 123 -13 156 -9 243 34 291 144 26 59 56 198 45
209 -3 3 -19 -3 -36 -15 -180 -129 -417 -97 -503 68 -73 140 -2 308 156 371
77 30 212 24 288 -13z m967 -39 c-11 -40 -78 -201 -148 -358 -71 -157 -146
-324 -167 -372 l-39 -88 -57 0 c-32 0 -58 2 -58 4 0 4 339 756 346 768 3 5
-92 8 -210 8 l-216 0 0 -74 c0 -82 -3 -86 -71 -86 l-39 0 0 135 0 135 339 0
340 0 -20 -72z m652 56 c39 -9 73 -22 75 -29 3 -7 -2 -28 -11 -45 -14 -27 -20
-31 -43 -26 -15 4 -72 9 -127 13 -90 5 -106 3 -153 -17 -56 -24 -116 -83 -138
-135 -13 -33 -47 -205 -41 -211 2 -2 25 12 52 32 190 134 454 72 510 -121 56
-190 -99 -354 -323 -343 -221 11 -344 168 -345 438 -1 148 36 251 121 342 100
107 247 142 423 102z m-2271 -434 l0 -440 -60 0 -60 0 0 390 0 390 -100 0
-100 0 0 50 0 50 160 0 160 0 0 -440z"/>
<path d="M5386 3550 c-67 -20 -116 -95 -116 -175 0 -105 83 -175 208 -175 73
0 156 39 189 89 27 41 31 126 8 171 -18 35 -67 73 -114 89 -39 13 -133 13
-175 1z"/>
<path d="M6975 3186 c-52 -20 -112 -84 -120 -130 -15 -78 21 -154 90 -190 31
-17 58 -21 126 -21 76 0 90 3 127 27 109 73 106 229 -5 295 -55 32 -157 41
-218 19z"/>
<path d="M2462 7133 c-85 -41 -88 -176 -6 -230 58 -38 159 -10 189 53 57 120
-63 236 -183 177z"/>
<path d="M919 7097 c-69 -46 -76 -142 -14 -204 28 -28 40 -33 83 -33 65 0 112
31 132 88 13 37 13 47 0 84 -29 82 -128 114 -201 65z"/>
<path d="M1620 6496 c-46 -17 -80 -67 -80 -120 0 -53 17 -85 59 -113 85 -58
201 2 201 104 0 62 -23 101 -73 124 -48 21 -59 22 -107 5z"/>
</g>
</svg>
